PathFileType	4	(X/Y/Z)	22_1_40_p0_0-217.trc
DataRate	CameraRate	NumFrames	NumMarkers	Units	OrigDataRate	OrigDataStartFrame	OrigNumFrames
58.0	58.0	7	27	m	58.0	163	218
Frame#	Time	RHip			RKnee			RAnkle			RBigToe			RSmallToe			RHeel			LHip			LKnee			LAnkle			LBigToe			LSmallToe			LHeel			Neck			Head			Nose			RShoulder			RElbow			RWrist			RThumb			RIndex			RPinky			LShoulder			LElbow			LWrist			LThumb			LIndex			LPinky			
		X1	Y1	Z1	X2	Y2	Z2	X3	Y3	Z3	X4	Y4	Z4	X5	Y5	Z5	X6	Y6	Z6	X7	Y7	Z7	X8	Y8	Z8	X9	Y9	Z9	X10	Y10	Z10	X11	Y11	Z11	X12	Y12	Z12	X13	Y13	Z13	X14	Y14	Z14	X15	Y15	Z15	X16	Y16	Z16	X17	Y17	Z17	X18	Y18	Z18	X19	Y19	Z19	X20	Y20	Z20	X21	Y21	Z21	X22	Y22	Z22	X23	Y23	Z23	X24	Y24	Z24	X25	Y25	Z25	X26	Y26	Z26	X27	Y27	Z27	
163	2.810344827586207	0.2601227516313777	0.6449633777274995	0.9214379904897897	0.2818351574533167	0.7531630760991078	1.355933499275316	0.27052268521169354	0.9036777664490098	1.8210614288223346	0.22994615004887506	0.6489008713471098	1.8540259000873094	0.3013702227841053	0.697610845625454	1.8660449947899178	0.282686530847299	0.9904498830215541	1.8830069458458658	0.02605427592342062	0.6481565128432858	0.9398404906016968	0.06467290777754321	0.7708484744923082	1.3793573524176888	0.09361936272641093	0.9020482224651414	1.8147481192221415	0.09829252988783832	0.6930104888671278	1.8650239116715868	0.049986336408072284	0.725132708416819	1.8679042855044126	0.10897386336916187	1.0045525116341627	1.8858835280061945	0.08505655091073584	0.35347856728868055	0.48282540753349407	0.11083942478311273	0.11552339896410864	0.27372471996457104	0.1125936289695867	0.21639616819047014	0.44020425312464945	0.25262678560408997	0.38827261788067957	0.4781657625330847	0.3529843846730724	0.5075084661166789	0.703271906988237	0.3235343652553954	0.2994673445394664	0.8140160973631266	0.28656086911738987	0.09053179960851267	0.8748446270435274	0.30422228781173044	0.1084783452411722	0.8746626072103725	0.31579127837633375	0.1509683580932749	0.8875276270463937	-0.07387313138508798	0.3825916046015005	0.5006327590471343	-0.11093087081261752	0.4707140642971701	0.7408275283392315	-0.11001895618301165	0.2560167620841789	0.8837596273966594	-0.1382023260713012	0.11825096747952168	0.9029300640145118	-0.13958788673474537	0.10614283148588945	0.943680952899974	-0.12571717987567063	0.22800148339277912	0.9696614941645711
164	2.8275862068965516	0.2604387441982802	0.6450670837707554	0.9250072158847118	0.28127881762206886	0.7543123253099525	1.360404730813213	0.27052654304627827	0.9041956229692358	1.8211709597813492	0.22869046101271223	0.6497574068677077	1.8585977595673857	0.30108298004704453	0.6973351958741376	1.8660108780975129	0.2821882239811034	0.9908106429054074	1.8788819183338497	0.026066321323858742	0.648342163408957	0.9400156202751146	0.06986265957372158	0.7848992689023162	1.3819447316946265	0.09372789901812256	0.9019562819317553	1.8147029812974462	0.09797473739156719	0.6938754109333063	1.8604598706831892	0.05473464411116546	0.7254617301852168	1.867910300610968	0.10880040857271156	1.003900974747215	1.8856509433430708	0.085076609889805	0.3535559151216204	0.48277000296296535	0.10880912138910484	0.12555925349724384	0.2717378470009665	0.11684960086250437	0.22511235394327161	0.4354981680735472	0.2519792968729063	0.3866666138477831	0.4745309458480271	0.35112728802053683	0.521518362392318	0.6995606218550955	0.31717565788510355	0.30062938019421265	0.8108485511885739	0.2798076949683883	0.09132733043678389	0.8686224141669114	0.29922059104169224	0.10079049105569009	0.870709879440567	0.30242016284444034	0.1628148849339736	0.8824532226984299	-0.06587654556393215	0.3946985925686826	0.4989408565909799	-0.11094811874067376	0.4707037350781946	0.7407238270792683	-0.10232175341893918	0.26734896189894203	0.883844472666519	-0.135013082496121	0.12769438657645857	0.9031875941219274	-0.1321999346526851	0.11581390808425464	0.9407100880386802	-0.11797134234783409	0.24941686850942713	0.9685790590242858
165	2.8448275862068964	0.2616312977894351	0.6469982062920386	0.9295515816191148	0.28112660720773336	0.754081410588085	1.3605519120771563	0.27605959703660665	0.9199957456050573	1.8216469813744167	0.22526483691146895	0.6497603338616225	1.8540861827063766	0.3009751969087654	0.6982043159778056	1.866177132523774	0.28232850055409714	0.9906127554516662	1.878793083930067	0.03128774594389373	0.6644593181620929	0.9450338549528453	0.07115382983879123	0.7875947554120167	1.387012374883039	0.09371399913788464	0.9021323122524572	1.8148157270438048	0.09671866773830351	0.6911284555025629	1.8557964484598553	0.05441011983014999	0.7270227351013018	1.8641371855437179	0.11501787690641094	1.0131826609967498	1.8848695628027237	0.08500963334419627	0.35364989715867096	0.4826626044041282	0.10840261721573342	0.1252081680911933	0.2684506088588088	0.1124701350609771	0.22323861723075625	0.4325977114298821	0.2519908347128083	0.38735160479504355	0.47787440599036696	0.3531119973146466	0.5078153431733745	0.7033294245700925	0.31167976841779343	0.2902882638220999	0.8140428406435896	0.2724240827469642	0.09105925626898505	0.865348869910536	0.29301886117909814	0.10324688767597112	0.8709236863694613	0.3000872265072789	0.153291645074983	0.8850328149860218	-0.06964563099407584	0.38321835834784	0.5002016471390859	-0.11087580468833003	0.47035491204576735	0.7408216425824674	-0.10227626334054037	0.2686331003575448	0.8871698866479183	-0.12749974265506367	0.11847025495483222	0.9070193160925588	-0.128335235535302	0.1166969994150252	0.9500683636230378	-0.11780582612638671	0.24991224694048667	0.9717258227660113
166	2.8620689655172415	0.26410748247675503	0.6331856157170588	0.9318455597807322	0.28080928807547917	0.7550341719765661	1.3578414372270764	0.26785340986821393	0.9224551076946546	1.8228892334407132	0.2249486514663114	0.649100718682053	1.8540479598135016	0.3009109915302712	0.6980856032905333	1.8662056810438317	0.27726474177666066	0.9764455584150922	1.879816130193828	0.027212279339317573	0.6545545764944619	0.9522341541393059	0.07081915710798821	0.7881788991430648	1.3835431821963389	0.09513363956826176	0.9054931379298337	1.820439412302358	0.09675935422212417	0.6911282180729326	1.8557599319609421	0.049713449539637584	0.7260898651962802	1.8637270069345853	0.11556346563518023	1.0145432006500499	1.8876010696643333	0.0849701340173995	0.35368049387328376	0.4824921357264485	0.10777461906480851	0.12387108318954668	0.2624987583086188	0.11173403808346383	0.2222536082780215	0.4295091382725858	0.2509561080659487	0.40158522130426805	0.4802993289278635	0.3518281367804844	0.5223310740961	0.7101231116225889	0.30436019942997844	0.29072403981831557	0.8117298331923306	0.2625977176030032	0.07928783405680336	0.8501869334367184	0.2740511517824877	0.08362056158935403	0.8675676224335331	0.2772365902329591	0.14806393626829484	0.8857028350641184	-0.06567312151375415	0.3945309934666563	0.49886614973899374	-0.11117404767314201	0.4703683424783674	0.7408004318607087	-0.09400250380449209	0.2786100880966745	0.8807442090980881	-0.12677571689912367	0.13806683842290166	0.9018660455371164	-0.12567462093142537	0.1364418197060041	0.9491864061007936	-0.11316986843544788	0.24938600729712185	0.9716558104002331
167	2.8793103448275863	0.26428679171077063	0.6343851277388595	0.9354532868300554	0.27668817491059816	0.754481081764244	1.3617316391098178	0.2682508155248802	0.9216132914283411	1.8269903209117628	0.22461456972898322	0.6491789386779752	1.8541372107885714	0.30052650771228706	0.697856675125497	1.8662150891288376	0.2823109863189771	0.9911795297830697	1.8789766175940188	0.027311276437419298	0.6547746488275867	0.9523874115604879	0.06594425835490336	0.7737674464384285	1.3846420599338836	0.09381733492715288	0.9024994944602477	1.8151043452399838	0.09679543009919514	0.6914254140149259	1.8558468640028	0.04982309580512173	0.7265254085741567	1.8638287648579743	0.11537058659155641	1.0130460123724543	1.8893025081824324	0.08898273218029748	0.3527710736962413	0.4791562834378697	0.10195372107456302	0.13427345262027485	0.26083307374766973	0.10908810168925702	0.23348820353914823	0.42539633616033107	0.2569290790822668	0.3879782193504314	0.4781006589122644	0.35166838014669466	0.522268143518276	0.7101494183976392	0.2947135125679021	0.2801769160841532	0.8122337583684812	0.25642426938030416	0.07017784237414368	0.8402019925399787	0.25742687090165167	0.0728323947092259	0.8648278485200186	0.27151719838277105	0.15097454363902063	0.8820681530801896	-0.06653604835987983	0.3712384192203899	0.5009840745022252	-0.10801422684170145	0.4581198019874596	0.740392342040816	-0.0938466291692067	0.2788743948361934	0.8805956986998245	-0.11199434611287774	0.147578367627815	0.9062239287807663	-0.11656535322888036	0.14550811747639328	0.9497715623534552	-0.10639024958933224	0.24978436095924664	0.9716326651730086
168	2.896551724137931	0.26377549766944974	0.6360226725440556	0.9397898976447944	0.28039913895844804	0.7559762678774807	1.3661659501035137	0.2685492408399695	0.9218344800114678	1.8270918380843608	0.22364538651956165	0.6343027048445864	1.8490580604177613	0.2943310859577692	0.6812199818297604	1.8607289090942554	0.28213624701368656	0.987687061652156	1.88233890730879	0.027256692077433815	0.6553361022213399	0.9520494073606651	0.06629381189378518	0.773315530990192	1.3882854380014693	0.0940802710825778	0.9023050890871157	1.815140814439664	0.09801254491648002	0.6776042090630421	1.8557977831987331	0.046608157110340095	0.7392751005127389	1.8690054230195303	0.11719266784283337	1.0166912460141924	1.8906749497218152	0.08872017903394218	0.3527992698312995	0.4757226652173952	0.09940951791448521	0.14441407592161906	0.2553309180772037	0.1090333884414632	0.23349457732357026	0.4251440210384116	0.2511035388538128	0.4019251447338324	0.4808212180361919	0.3456791230796569	0.5104359592798144	0.7099919833624022	0.29121341898857045	0.25721549590034354	0.814385862509368	0.2461627582653536	0.06659557914822402	0.8418409057501067	0.24918131707901314	0.07037092319154122	0.8639935080390796	0.26371944384154905	0.16196439107830654	0.8862327678578519	-0.06723513774851202	0.36911595222960764	0.4941617783884705	-0.10919640040247904	0.4559920657105615	0.7328246572426409	-0.0890127957304466	0.2804599190291479	0.8805873416492666	-0.09172650257220825	0.169941592727397	0.9167463197963172	-0.10771069367462763	0.15673835184430532	0.9504427776905959	-0.09830236200314023	0.24798324674496178	0.9683763929320136
169	2.913793103448276	0.2625132622369706	0.6329639931223061	0.9279219955618422	0.2805529646334671	0.7558286805789217	1.365812077556168	0.27043896873612805	0.9031387830509415	1.821040576986993	0.22349261602717807	0.6372868793812344	1.854071633910832	0.29482402410123904	0.6827525974439905	1.8610634564370996	0.2816343911322581	0.9914295738192576	1.8872977864017995	0.026772431982246735	0.6539253020932223	0.9472290714339003	0.06599997873583122	0.7737557400063454	1.3843866249601187	0.0932422384182572	0.9037466639633103	1.820063281396839	0.09802612602787486	0.6779451878017553	1.856054527685488	0.046589619123035296	0.7396887517496488	1.8693493749494725	0.11769375816980172	0.9912447994221264	1.8805690967013258	0.0887574133619047	0.35297256843086655	0.47555098440712285	0.09286083271881537	0.1448977496487261	0.2530486214580986	0.10428485238686899	0.2227067568121444	0.4232743391955653	0.25112551837260566	0.40218131909379734	0.4809352717259028	0.345243235489081	0.5097750630894642	0.7033562722272769	0.2837380491566615	0.28109911217762595	0.8125059088754731	0.23985912681719682	0.05509511955968384	0.8327492567475224	0.24030328664443476	0.05681866320912211	0.8494154636370709	0.2552466230998392	0.12866764216402096	0.8786842839863493	-0.06291646927006242	0.382190552144061	0.49600691504268984	-0.10952973880943753	0.4584427809079172	0.73564731034634	-0.07491317124528205	0.3017767291526468	0.8805368749979184	-0.07034094196155169	0.1662910417166894	0.9326598940578853	-0.08399985377542867	0.16051066093144328	0.9555829266193614	-0.09112411723083662	0.20941463751459827	0.9725623150400938
